<mxfile host="Electron" modified="2024-01-11T11:48:52.839Z" agent="Mozilla/5.0 (Windows NT 10.0; Win64; x64) AppleWebKit/537.36 (KHTML, like Gecko) draw.io/22.1.16 Chrome/120.0.6099.109 Electron/28.1.0 Safari/537.36" etag="SFe673ceAK1jWmAGC7Zd" version="22.1.16" type="device">
  <diagram id="prtHgNgQTEPvFCAcTncT" name="Page-1">
    <mxGraphModel dx="6248" dy="3636" grid="1" gridSize="10" guides="1" tooltips="1" connect="1" arrows="1" fold="1" page="1" pageScale="1" pageWidth="2339" pageHeight="3300" math="0" shadow="0">
      <root>
        <mxCell id="0" />
        <mxCell id="1" parent="0" />
        <mxCell id="r15vyIwHmRAf6tkdbMvE-11" value="Kurseverwaltungsprozess" style="swimlane;childLayout=stackLayout;resizeParent=1;resizeParentMax=0;startSize=20;html=1;fontFamily=Helvetica;fontSize=11;fontColor=default;" parent="1" vertex="1">
          <mxGeometry x="220" y="50" width="1810" height="2550" as="geometry" />
        </mxCell>
        <mxCell id="0JrusJnMJfVBX46V95SI-39" style="edgeStyle=orthogonalEdgeStyle;rounded=0;orthogonalLoop=1;jettySize=auto;html=1;endArrow=open;endFill=0;" parent="r15vyIwHmRAf6tkdbMvE-11" source="0JrusJnMJfVBX46V95SI-16" target="0JrusJnMJfVBX46V95SI-38" edge="1">
          <mxGeometry relative="1" as="geometry">
            <Array as="points">
              <mxPoint x="760" y="260" />
              <mxPoint x="760" y="260" />
            </Array>
          </mxGeometry>
        </mxCell>
        <mxCell id="0JrusJnMJfVBX46V95SI-12" style="edgeStyle=orthogonalEdgeStyle;rounded=0;orthogonalLoop=1;jettySize=auto;html=1;endArrow=open;endFill=0;" parent="r15vyIwHmRAf6tkdbMvE-11" source="r15vyIwHmRAf6tkdbMvE-31" target="0JrusJnMJfVBX46V95SI-8" edge="1">
          <mxGeometry relative="1" as="geometry" />
        </mxCell>
        <mxCell id="lxgantifRZ7oLD4zVD7n-120" style="edgeStyle=orthogonalEdgeStyle;shape=connector;rounded=0;orthogonalLoop=1;jettySize=auto;html=1;labelBackgroundColor=default;strokeColor=default;align=center;verticalAlign=middle;fontFamily=Helvetica;fontSize=11;fontColor=default;endArrow=open;endFill=0;" edge="1" parent="r15vyIwHmRAf6tkdbMvE-11" source="0JrusJnMJfVBX46V95SI-94" target="lxgantifRZ7oLD4zVD7n-123">
          <mxGeometry relative="1" as="geometry">
            <Array as="points">
              <mxPoint x="580" y="510" />
              <mxPoint x="580" y="510" />
            </Array>
          </mxGeometry>
        </mxCell>
        <mxCell id="lxgantifRZ7oLD4zVD7n-125" style="edgeStyle=orthogonalEdgeStyle;shape=connector;rounded=0;orthogonalLoop=1;jettySize=auto;html=1;labelBackgroundColor=default;strokeColor=default;align=center;verticalAlign=middle;fontFamily=Helvetica;fontSize=11;fontColor=default;endArrow=open;endFill=0;" edge="1" parent="r15vyIwHmRAf6tkdbMvE-11" source="lxgantifRZ7oLD4zVD7n-119" target="lxgantifRZ7oLD4zVD7n-166">
          <mxGeometry relative="1" as="geometry">
            <Array as="points">
              <mxPoint x="280" y="710" />
            </Array>
          </mxGeometry>
        </mxCell>
        <mxCell id="lxgantifRZ7oLD4zVD7n-143" style="edgeStyle=orthogonalEdgeStyle;shape=connector;rounded=0;orthogonalLoop=1;jettySize=auto;html=1;labelBackgroundColor=default;strokeColor=default;align=center;verticalAlign=middle;fontFamily=Helvetica;fontSize=11;fontColor=default;endArrow=open;endFill=0;" edge="1" parent="r15vyIwHmRAf6tkdbMvE-11" source="lxgantifRZ7oLD4zVD7n-128" target="lxgantifRZ7oLD4zVD7n-141">
          <mxGeometry relative="1" as="geometry" />
        </mxCell>
        <mxCell id="lxgantifRZ7oLD4zVD7n-179" style="edgeStyle=orthogonalEdgeStyle;shape=connector;rounded=0;orthogonalLoop=1;jettySize=auto;html=1;labelBackgroundColor=default;strokeColor=default;align=center;verticalAlign=middle;fontFamily=Helvetica;fontSize=11;fontColor=default;endArrow=open;endFill=0;" edge="1" parent="r15vyIwHmRAf6tkdbMvE-11" source="lxgantifRZ7oLD4zVD7n-129" target="lxgantifRZ7oLD4zVD7n-178">
          <mxGeometry relative="1" as="geometry" />
        </mxCell>
        <mxCell id="lxgantifRZ7oLD4zVD7n-165" style="edgeStyle=orthogonalEdgeStyle;shape=connector;rounded=0;orthogonalLoop=1;jettySize=auto;html=1;labelBackgroundColor=default;strokeColor=default;align=center;verticalAlign=middle;fontFamily=Helvetica;fontSize=11;fontColor=default;endArrow=open;endFill=0;" edge="1" parent="r15vyIwHmRAf6tkdbMvE-11" source="lxgantifRZ7oLD4zVD7n-161" target="lxgantifRZ7oLD4zVD7n-169">
          <mxGeometry relative="1" as="geometry">
            <mxPoint x="469.9999999999998" y="1250" as="sourcePoint" />
            <mxPoint x="1045" y="1069.9999999999998" as="targetPoint" />
            <Array as="points">
              <mxPoint x="1068" y="1200" />
            </Array>
          </mxGeometry>
        </mxCell>
        <mxCell id="r15vyIwHmRAf6tkdbMvE-21" style="edgeStyle=orthogonalEdgeStyle;shape=connector;rounded=0;orthogonalLoop=1;jettySize=auto;html=1;labelBackgroundColor=default;strokeColor=default;align=center;verticalAlign=middle;fontFamily=Helvetica;fontSize=11;fontColor=default;endArrow=open;endFill=0;" parent="r15vyIwHmRAf6tkdbMvE-11" source="r15vyIwHmRAf6tkdbMvE-18" target="r15vyIwHmRAf6tkdbMvE-20" edge="1">
          <mxGeometry relative="1" as="geometry" />
        </mxCell>
        <mxCell id="lxgantifRZ7oLD4zVD7n-191" style="edgeStyle=orthogonalEdgeStyle;shape=connector;rounded=0;orthogonalLoop=1;jettySize=auto;html=1;labelBackgroundColor=default;strokeColor=default;align=center;verticalAlign=middle;fontFamily=Helvetica;fontSize=11;fontColor=default;endArrow=open;endFill=0;" edge="1" parent="r15vyIwHmRAf6tkdbMvE-11" source="lxgantifRZ7oLD4zVD7n-186" target="lxgantifRZ7oLD4zVD7n-188">
          <mxGeometry relative="1" as="geometry">
            <mxPoint x="1330" y="490" as="targetPoint" />
          </mxGeometry>
        </mxCell>
        <mxCell id="lxgantifRZ7oLD4zVD7n-156" style="edgeStyle=orthogonalEdgeStyle;shape=connector;rounded=0;orthogonalLoop=1;jettySize=auto;html=1;labelBackgroundColor=default;strokeColor=default;align=center;verticalAlign=middle;fontFamily=Helvetica;fontSize=11;fontColor=default;endArrow=open;endFill=0;" edge="1" parent="r15vyIwHmRAf6tkdbMvE-11" source="0JrusJnMJfVBX46V95SI-2" target="0JrusJnMJfVBX46V95SI-110">
          <mxGeometry relative="1" as="geometry">
            <mxPoint x="907.4736842105267" y="530.0263157894733" as="targetPoint" />
            <Array as="points">
              <mxPoint x="50" y="470" />
            </Array>
          </mxGeometry>
        </mxCell>
        <mxCell id="lxgantifRZ7oLD4zVD7n-139" style="edgeStyle=orthogonalEdgeStyle;shape=connector;rounded=0;orthogonalLoop=1;jettySize=auto;html=1;labelBackgroundColor=default;strokeColor=default;align=center;verticalAlign=middle;fontFamily=Helvetica;fontSize=11;fontColor=default;endArrow=open;endFill=0;" edge="1" parent="r15vyIwHmRAf6tkdbMvE-11" source="lxgantifRZ7oLD4zVD7n-121" target="lxgantifRZ7oLD4zVD7n-169">
          <mxGeometry relative="1" as="geometry">
            <Array as="points">
              <mxPoint x="840" y="770" />
              <mxPoint x="840" y="770" />
            </Array>
          </mxGeometry>
        </mxCell>
        <mxCell id="r15vyIwHmRAf6tkdbMvE-12" value="Anwender: Student" style="swimlane;startSize=20;html=1;fontFamily=Helvetica;fontSize=11;fontColor=default;" parent="r15vyIwHmRAf6tkdbMvE-11" vertex="1">
          <mxGeometry y="20" width="820" height="2530" as="geometry" />
        </mxCell>
        <mxCell id="0JrusJnMJfVBX46V95SI-94" value="Kurs anmelden klicken" style="rounded=1;whiteSpace=wrap;html=1;" parent="r15vyIwHmRAf6tkdbMvE-12" vertex="1">
          <mxGeometry x="335" y="470" width="110" height="40" as="geometry" />
        </mxCell>
        <mxCell id="lxgantifRZ7oLD4zVD7n-192" style="edgeStyle=orthogonalEdgeStyle;shape=connector;rounded=0;orthogonalLoop=1;jettySize=auto;html=1;labelBackgroundColor=default;strokeColor=default;align=center;verticalAlign=middle;fontFamily=Helvetica;fontSize=11;fontColor=default;endArrow=open;endFill=0;" edge="1" parent="r15vyIwHmRAf6tkdbMvE-12" source="0JrusJnMJfVBX46V95SI-5" target="0JrusJnMJfVBX46V95SI-16">
          <mxGeometry relative="1" as="geometry">
            <Array as="points">
              <mxPoint x="390" y="275" />
            </Array>
          </mxGeometry>
        </mxCell>
        <mxCell id="0JrusJnMJfVBX46V95SI-5" value="Benutzername eingeben und einloggen" style="rounded=1;whiteSpace=wrap;html=1;" parent="r15vyIwHmRAf6tkdbMvE-12" vertex="1">
          <mxGeometry x="220" y="250" width="110" height="50" as="geometry" />
        </mxCell>
        <mxCell id="0JrusJnMJfVBX46V95SI-9" value="Als Gast forstsetzen drÃ¼cken" style="rounded=1;whiteSpace=wrap;html=1;" parent="r15vyIwHmRAf6tkdbMvE-12" vertex="1">
          <mxGeometry x="220" y="175" width="110" height="50" as="geometry" />
        </mxCell>
        <mxCell id="0JrusJnMJfVBX46V95SI-16" value="" style="rhombus;whiteSpace=wrap;html=1;" parent="r15vyIwHmRAf6tkdbMvE-12" vertex="1">
          <mxGeometry x="370" y="220" width="40" height="40" as="geometry" />
        </mxCell>
        <mxCell id="0JrusJnMJfVBX46V95SI-18" style="edgeStyle=orthogonalEdgeStyle;rounded=0;orthogonalLoop=1;jettySize=auto;html=1;endArrow=open;endFill=0;" parent="r15vyIwHmRAf6tkdbMvE-12" source="0JrusJnMJfVBX46V95SI-9" target="0JrusJnMJfVBX46V95SI-16" edge="1">
          <mxGeometry relative="1" as="geometry">
            <Array as="points">
              <mxPoint x="390" y="200" />
            </Array>
          </mxGeometry>
        </mxCell>
        <mxCell id="0JrusJnMJfVBX46V95SI-8" value="" style="rhombus;whiteSpace=wrap;html=1;" parent="r15vyIwHmRAf6tkdbMvE-12" vertex="1">
          <mxGeometry x="30" y="180" width="40" height="40" as="geometry" />
        </mxCell>
        <mxCell id="0JrusJnMJfVBX46V95SI-10" style="edgeStyle=orthogonalEdgeStyle;rounded=0;orthogonalLoop=1;jettySize=auto;html=1;endArrow=open;endFill=0;" parent="r15vyIwHmRAf6tkdbMvE-12" source="0JrusJnMJfVBX46V95SI-8" target="0JrusJnMJfVBX46V95SI-5" edge="1">
          <mxGeometry relative="1" as="geometry">
            <Array as="points">
              <mxPoint x="50" y="275" />
            </Array>
          </mxGeometry>
        </mxCell>
        <mxCell id="0JrusJnMJfVBX46V95SI-13" value="Standardanmeldung?" style="edgeLabel;html=1;align=center;verticalAlign=middle;resizable=0;points=[];" parent="0JrusJnMJfVBX46V95SI-10" vertex="1" connectable="0">
          <mxGeometry x="-0.0616" relative="1" as="geometry">
            <mxPoint x="35" as="offset" />
          </mxGeometry>
        </mxCell>
        <mxCell id="0JrusJnMJfVBX46V95SI-11" style="edgeStyle=orthogonalEdgeStyle;rounded=0;orthogonalLoop=1;jettySize=auto;html=1;endArrow=open;endFill=0;" parent="r15vyIwHmRAf6tkdbMvE-12" source="0JrusJnMJfVBX46V95SI-8" target="0JrusJnMJfVBX46V95SI-9" edge="1">
          <mxGeometry relative="1" as="geometry">
            <Array as="points">
              <mxPoint x="125" y="200" />
            </Array>
          </mxGeometry>
        </mxCell>
        <mxCell id="0JrusJnMJfVBX46V95SI-15" value="Als Gast anmelden?" style="edgeLabel;html=1;align=center;verticalAlign=middle;resizable=0;points=[];" parent="0JrusJnMJfVBX46V95SI-11" vertex="1" connectable="0">
          <mxGeometry x="-0.0524" relative="1" as="geometry">
            <mxPoint x="-6" as="offset" />
          </mxGeometry>
        </mxCell>
        <mxCell id="0JrusJnMJfVBX46V95SI-99" style="edgeStyle=orthogonalEdgeStyle;rounded=0;orthogonalLoop=1;jettySize=auto;html=1;endArrow=open;endFill=0;" parent="r15vyIwHmRAf6tkdbMvE-12" source="0JrusJnMJfVBX46V95SI-98" target="0JrusJnMJfVBX46V95SI-94" edge="1">
          <mxGeometry relative="1" as="geometry" />
        </mxCell>
        <mxCell id="lxgantifRZ7oLD4zVD7n-19" value="Kurs anmelden?" style="edgeLabel;html=1;align=center;verticalAlign=middle;resizable=0;points=[];fontSize=11;fontFamily=Helvetica;fontColor=default;" vertex="1" connectable="0" parent="0JrusJnMJfVBX46V95SI-99">
          <mxGeometry x="-0.4827" relative="1" as="geometry">
            <mxPoint x="23" as="offset" />
          </mxGeometry>
        </mxCell>
        <mxCell id="0JrusJnMJfVBX46V95SI-98" value="" style="rhombus;whiteSpace=wrap;html=1;" parent="r15vyIwHmRAf6tkdbMvE-12" vertex="1">
          <mxGeometry x="170" y="470" width="40" height="40" as="geometry" />
        </mxCell>
        <mxCell id="lxgantifRZ7oLD4zVD7n-4" style="edgeStyle=orthogonalEdgeStyle;rounded=0;orthogonalLoop=1;jettySize=auto;html=1;endArrow=open;endFill=0;" edge="1" parent="r15vyIwHmRAf6tkdbMvE-12" source="0JrusJnMJfVBX46V95SI-110" target="0JrusJnMJfVBX46V95SI-98">
          <mxGeometry relative="1" as="geometry">
            <Array as="points">
              <mxPoint x="100" y="490" />
              <mxPoint x="100" y="490" />
            </Array>
          </mxGeometry>
        </mxCell>
        <mxCell id="lxgantifRZ7oLD4zVD7n-5" value="nicht fertig?" style="edgeLabel;html=1;align=center;verticalAlign=middle;resizable=0;points=[];" vertex="1" connectable="0" parent="lxgantifRZ7oLD4zVD7n-4">
          <mxGeometry x="-0.0021" y="1" relative="1" as="geometry">
            <mxPoint as="offset" />
          </mxGeometry>
        </mxCell>
        <mxCell id="0JrusJnMJfVBX46V95SI-110" value="" style="rhombus;whiteSpace=wrap;html=1;" parent="r15vyIwHmRAf6tkdbMvE-12" vertex="1">
          <mxGeometry x="30" y="470" width="40" height="40" as="geometry" />
        </mxCell>
        <mxCell id="lxgantifRZ7oLD4zVD7n-187" style="edgeStyle=orthogonalEdgeStyle;shape=connector;rounded=0;orthogonalLoop=1;jettySize=auto;html=1;labelBackgroundColor=default;strokeColor=default;align=center;verticalAlign=middle;fontFamily=Helvetica;fontSize=11;fontColor=default;endArrow=open;endFill=0;" edge="1" parent="r15vyIwHmRAf6tkdbMvE-12" source="lxgantifRZ7oLD4zVD7n-166" target="lxgantifRZ7oLD4zVD7n-186">
          <mxGeometry relative="1" as="geometry">
            <Array as="points">
              <mxPoint x="280" y="1265" />
            </Array>
          </mxGeometry>
        </mxCell>
        <mxCell id="lxgantifRZ7oLD4zVD7n-194" value="fertig?" style="edgeLabel;html=1;align=center;verticalAlign=middle;resizable=0;points=[];fontSize=11;fontFamily=Helvetica;fontColor=default;" vertex="1" connectable="0" parent="lxgantifRZ7oLD4zVD7n-187">
          <mxGeometry x="-0.9424" y="1" relative="1" as="geometry">
            <mxPoint as="offset" />
          </mxGeometry>
        </mxCell>
        <mxCell id="lxgantifRZ7oLD4zVD7n-166" value="" style="rhombus;whiteSpace=wrap;html=1;" vertex="1" parent="r15vyIwHmRAf6tkdbMvE-12">
          <mxGeometry x="260" y="730" width="40" height="40" as="geometry" />
        </mxCell>
        <mxCell id="lxgantifRZ7oLD4zVD7n-128" value="Gesuchtes Modul anklicken" style="rounded=1;whiteSpace=wrap;html=1;" vertex="1" parent="r15vyIwHmRAf6tkdbMvE-12">
          <mxGeometry x="580" y="800" width="110" height="40" as="geometry" />
        </mxCell>
        <mxCell id="lxgantifRZ7oLD4zVD7n-129" value="Modul anmelden" style="rounded=1;whiteSpace=wrap;html=1;" vertex="1" parent="r15vyIwHmRAf6tkdbMvE-12">
          <mxGeometry x="580" y="1070" width="110" height="40" as="geometry" />
        </mxCell>
        <mxCell id="lxgantifRZ7oLD4zVD7n-161" value="ZurÃ¼ck klicken" style="rounded=1;whiteSpace=wrap;html=1;" vertex="1" parent="r15vyIwHmRAf6tkdbMvE-12">
          <mxGeometry x="580" y="1160" width="110" height="40" as="geometry" />
        </mxCell>
        <mxCell id="lxgantifRZ7oLD4zVD7n-186" value="Auf MyCourses-Seite klicken" style="rounded=1;whiteSpace=wrap;html=1;" vertex="1" parent="r15vyIwHmRAf6tkdbMvE-12">
          <mxGeometry x="580" y="1245" width="110" height="40" as="geometry" />
        </mxCell>
        <mxCell id="r15vyIwHmRAf6tkdbMvE-15" value="" style="ellipse;whiteSpace=wrap;html=1;fillColor=#000000;" parent="r15vyIwHmRAf6tkdbMvE-12" vertex="1">
          <mxGeometry x="40" y="60" width="20" height="20" as="geometry" />
        </mxCell>
        <mxCell id="r15vyIwHmRAf6tkdbMvE-18" value="App starten" style="rounded=1;whiteSpace=wrap;html=1;" parent="r15vyIwHmRAf6tkdbMvE-12" vertex="1">
          <mxGeometry x="220" y="50" width="110" height="40" as="geometry" />
        </mxCell>
        <mxCell id="r15vyIwHmRAf6tkdbMvE-17" style="edgeStyle=orthogonalEdgeStyle;shape=connector;rounded=0;orthogonalLoop=1;jettySize=auto;html=1;labelBackgroundColor=default;strokeColor=default;align=center;verticalAlign=middle;fontFamily=Helvetica;fontSize=11;fontColor=default;endArrow=open;endFill=0;" parent="r15vyIwHmRAf6tkdbMvE-12" source="r15vyIwHmRAf6tkdbMvE-15" target="r15vyIwHmRAf6tkdbMvE-18" edge="1">
          <mxGeometry relative="1" as="geometry">
            <mxPoint x="410" y="50" as="targetPoint" />
          </mxGeometry>
        </mxCell>
        <mxCell id="lxgantifRZ7oLD4zVD7n-134" value="" style="rhombus;whiteSpace=wrap;html=1;" vertex="1" parent="r15vyIwHmRAf6tkdbMvE-12">
          <mxGeometry x="390" y="730" width="40" height="40" as="geometry" />
        </mxCell>
        <mxCell id="lxgantifRZ7oLD4zVD7n-137" style="edgeStyle=orthogonalEdgeStyle;shape=connector;rounded=0;orthogonalLoop=1;jettySize=auto;html=1;labelBackgroundColor=default;strokeColor=default;align=center;verticalAlign=middle;fontFamily=Helvetica;fontSize=11;fontColor=default;endArrow=open;endFill=0;" edge="1" parent="r15vyIwHmRAf6tkdbMvE-12" source="lxgantifRZ7oLD4zVD7n-134" target="lxgantifRZ7oLD4zVD7n-128">
          <mxGeometry relative="1" as="geometry">
            <Array as="points">
              <mxPoint x="410" y="820" />
            </Array>
          </mxGeometry>
        </mxCell>
        <mxCell id="lxgantifRZ7oLD4zVD7n-138" value="Modul gefunden?" style="edgeLabel;html=1;align=center;verticalAlign=middle;resizable=0;points=[];fontSize=11;fontFamily=Helvetica;fontColor=default;" vertex="1" connectable="0" parent="lxgantifRZ7oLD4zVD7n-137">
          <mxGeometry x="-0.3559" y="1" relative="1" as="geometry">
            <mxPoint x="49" y="1" as="offset" />
          </mxGeometry>
        </mxCell>
        <mxCell id="lxgantifRZ7oLD4zVD7n-167" style="edgeStyle=orthogonalEdgeStyle;shape=connector;rounded=0;orthogonalLoop=1;jettySize=auto;html=1;labelBackgroundColor=default;strokeColor=default;align=center;verticalAlign=middle;fontFamily=Helvetica;fontSize=11;fontColor=default;endArrow=open;endFill=0;" edge="1" parent="r15vyIwHmRAf6tkdbMvE-12" source="lxgantifRZ7oLD4zVD7n-166" target="lxgantifRZ7oLD4zVD7n-134">
          <mxGeometry relative="1" as="geometry" />
        </mxCell>
        <mxCell id="lxgantifRZ7oLD4zVD7n-168" value="nicht fertig?" style="edgeLabel;html=1;align=center;verticalAlign=middle;resizable=0;points=[];fontSize=11;fontFamily=Helvetica;fontColor=default;" vertex="1" connectable="0" parent="lxgantifRZ7oLD4zVD7n-167">
          <mxGeometry x="-0.2922" y="2" relative="1" as="geometry">
            <mxPoint x="13" y="2" as="offset" />
          </mxGeometry>
        </mxCell>
        <mxCell id="lxgantifRZ7oLD4zVD7n-121" value="Modul suchen" style="rounded=1;whiteSpace=wrap;html=1;" vertex="1" parent="r15vyIwHmRAf6tkdbMvE-12">
          <mxGeometry x="580" y="730" width="110" height="40" as="geometry" />
        </mxCell>
        <mxCell id="lxgantifRZ7oLD4zVD7n-135" style="edgeStyle=orthogonalEdgeStyle;shape=connector;rounded=0;orthogonalLoop=1;jettySize=auto;html=1;labelBackgroundColor=default;strokeColor=default;align=center;verticalAlign=middle;fontFamily=Helvetica;fontSize=11;fontColor=default;endArrow=open;endFill=0;" edge="1" parent="r15vyIwHmRAf6tkdbMvE-12" source="lxgantifRZ7oLD4zVD7n-134" target="lxgantifRZ7oLD4zVD7n-121">
          <mxGeometry relative="1" as="geometry" />
        </mxCell>
        <mxCell id="lxgantifRZ7oLD4zVD7n-136" value="Modul nicht gefunden?" style="edgeLabel;html=1;align=center;verticalAlign=middle;resizable=0;points=[];fontSize=11;fontFamily=Helvetica;fontColor=default;" vertex="1" connectable="0" parent="lxgantifRZ7oLD4zVD7n-135">
          <mxGeometry x="0.2513" relative="1" as="geometry">
            <mxPoint x="-24" as="offset" />
          </mxGeometry>
        </mxCell>
        <mxCell id="lxgantifRZ7oLD4zVD7n-171" value="" style="rhombus;whiteSpace=wrap;html=1;" vertex="1" parent="r15vyIwHmRAf6tkdbMvE-12">
          <mxGeometry x="390" y="1070" width="40" height="40" as="geometry" />
        </mxCell>
        <mxCell id="lxgantifRZ7oLD4zVD7n-175" style="edgeStyle=orthogonalEdgeStyle;shape=connector;rounded=0;orthogonalLoop=1;jettySize=auto;html=1;labelBackgroundColor=default;strokeColor=default;align=center;verticalAlign=middle;fontFamily=Helvetica;fontSize=11;fontColor=default;endArrow=open;endFill=0;" edge="1" parent="r15vyIwHmRAf6tkdbMvE-12" source="lxgantifRZ7oLD4zVD7n-171" target="lxgantifRZ7oLD4zVD7n-161">
          <mxGeometry relative="1" as="geometry">
            <Array as="points">
              <mxPoint x="410" y="1180" />
            </Array>
          </mxGeometry>
        </mxCell>
        <mxCell id="lxgantifRZ7oLD4zVD7n-176" value="Modul nicht anmelden?" style="edgeLabel;html=1;align=center;verticalAlign=middle;resizable=0;points=[];fontSize=11;fontFamily=Helvetica;fontColor=default;" vertex="1" connectable="0" parent="lxgantifRZ7oLD4zVD7n-175">
          <mxGeometry x="0.2456" y="1" relative="1" as="geometry">
            <mxPoint x="-9" y="1" as="offset" />
          </mxGeometry>
        </mxCell>
        <mxCell id="lxgantifRZ7oLD4zVD7n-172" style="edgeStyle=orthogonalEdgeStyle;shape=connector;rounded=0;orthogonalLoop=1;jettySize=auto;html=1;labelBackgroundColor=default;strokeColor=default;align=center;verticalAlign=middle;fontFamily=Helvetica;fontSize=11;fontColor=default;endArrow=open;endFill=0;" edge="1" parent="r15vyIwHmRAf6tkdbMvE-12" source="lxgantifRZ7oLD4zVD7n-171" target="lxgantifRZ7oLD4zVD7n-129">
          <mxGeometry relative="1" as="geometry">
            <Array as="points">
              <mxPoint x="500" y="1090" />
              <mxPoint x="500" y="1090" />
            </Array>
          </mxGeometry>
        </mxCell>
        <mxCell id="lxgantifRZ7oLD4zVD7n-174" value="Modul anmelden?" style="edgeLabel;html=1;align=center;verticalAlign=middle;resizable=0;points=[];fontSize=11;fontFamily=Helvetica;fontColor=default;" vertex="1" connectable="0" parent="lxgantifRZ7oLD4zVD7n-172">
          <mxGeometry x="-0.392" y="-1" relative="1" as="geometry">
            <mxPoint x="5" y="-1" as="offset" />
          </mxGeometry>
        </mxCell>
        <mxCell id="0JrusJnMJfVBX46V95SI-103" value="" style="rhombus;whiteSpace=wrap;html=1;" parent="r15vyIwHmRAf6tkdbMvE-12" vertex="1">
          <mxGeometry x="170" y="1430" width="40" height="40" as="geometry" />
        </mxCell>
        <mxCell id="0JrusJnMJfVBX46V95SI-105" style="edgeStyle=orthogonalEdgeStyle;rounded=0;orthogonalLoop=1;jettySize=auto;html=1;endArrow=open;endFill=0;" parent="r15vyIwHmRAf6tkdbMvE-12" source="0JrusJnMJfVBX46V95SI-98" target="0JrusJnMJfVBX46V95SI-103" edge="1">
          <mxGeometry relative="1" as="geometry" />
        </mxCell>
        <mxCell id="lxgantifRZ7oLD4zVD7n-20" value="Kurs bearbeiten oder lÃ¶schen?" style="edgeLabel;html=1;align=center;verticalAlign=middle;resizable=0;points=[];fontSize=11;fontFamily=Helvetica;fontColor=default;" vertex="1" connectable="0" parent="0JrusJnMJfVBX46V95SI-105">
          <mxGeometry x="-0.4263" y="1" relative="1" as="geometry">
            <mxPoint x="-1" y="-317" as="offset" />
          </mxGeometry>
        </mxCell>
        <mxCell id="0JrusJnMJfVBX46V95SI-104" style="edgeStyle=orthogonalEdgeStyle;rounded=0;orthogonalLoop=1;jettySize=auto;html=1;endArrow=open;endFill=0;" parent="r15vyIwHmRAf6tkdbMvE-12" source="0JrusJnMJfVBX46V95SI-103" target="0JrusJnMJfVBX46V95SI-110" edge="1">
          <mxGeometry relative="1" as="geometry">
            <Array as="points">
              <mxPoint x="30" y="1450" />
              <mxPoint x="30" y="840" />
              <mxPoint x="10" y="840" />
              <mxPoint x="10" y="490" />
            </Array>
          </mxGeometry>
        </mxCell>
        <mxCell id="lxgantifRZ7oLD4zVD7n-22" value="Kurse &amp;lt;= 0?" style="edgeLabel;html=1;align=center;verticalAlign=middle;resizable=0;points=[];fontSize=11;fontFamily=Helvetica;fontColor=default;" vertex="1" connectable="0" parent="0JrusJnMJfVBX46V95SI-104">
          <mxGeometry x="-0.1889" y="1" relative="1" as="geometry">
            <mxPoint x="-4" y="644" as="offset" />
          </mxGeometry>
        </mxCell>
        <mxCell id="lxgantifRZ7oLD4zVD7n-177" style="edgeStyle=orthogonalEdgeStyle;shape=connector;rounded=0;orthogonalLoop=1;jettySize=auto;html=1;labelBackgroundColor=default;strokeColor=default;align=center;verticalAlign=middle;fontFamily=Helvetica;fontSize=11;fontColor=default;endArrow=open;endFill=0;" edge="1" parent="r15vyIwHmRAf6tkdbMvE-11" source="lxgantifRZ7oLD4zVD7n-122" target="lxgantifRZ7oLD4zVD7n-171">
          <mxGeometry relative="1" as="geometry" />
        </mxCell>
        <mxCell id="r15vyIwHmRAf6tkdbMvE-13" value="OrganisationApp" style="swimlane;startSize=20;html=1;fontFamily=Helvetica;fontSize=11;fontColor=default;" parent="r15vyIwHmRAf6tkdbMvE-11" vertex="1">
          <mxGeometry x="820" y="20" width="990" height="2530" as="geometry" />
        </mxCell>
        <mxCell id="r15vyIwHmRAf6tkdbMvE-33" style="edgeStyle=orthogonalEdgeStyle;shape=connector;rounded=0;orthogonalLoop=1;jettySize=auto;html=1;labelBackgroundColor=default;strokeColor=default;align=center;verticalAlign=middle;fontFamily=Helvetica;fontSize=11;fontColor=default;endArrow=open;endFill=0;" parent="r15vyIwHmRAf6tkdbMvE-13" source="r15vyIwHmRAf6tkdbMvE-20" target="0JrusJnMJfVBX46V95SI-40" edge="1">
          <mxGeometry relative="1" as="geometry">
            <Array as="points">
              <mxPoint x="210" y="120" />
              <mxPoint x="210" y="120" />
            </Array>
          </mxGeometry>
        </mxCell>
        <mxCell id="r15vyIwHmRAf6tkdbMvE-38" value="Benutzer nicht eingeloggt?" style="edgeLabel;html=1;align=center;verticalAlign=middle;resizable=0;points=[];fontSize=11;fontFamily=Helvetica;fontColor=default;" parent="r15vyIwHmRAf6tkdbMvE-33" vertex="1" connectable="0">
          <mxGeometry x="-0.4279" y="-3" relative="1" as="geometry">
            <mxPoint x="3" y="9" as="offset" />
          </mxGeometry>
        </mxCell>
        <mxCell id="0JrusJnMJfVBX46V95SI-3" style="edgeStyle=orthogonalEdgeStyle;rounded=0;orthogonalLoop=1;jettySize=auto;html=1;endArrow=open;endFill=0;" parent="r15vyIwHmRAf6tkdbMvE-13" source="r15vyIwHmRAf6tkdbMvE-20" target="0JrusJnMJfVBX46V95SI-46" edge="1">
          <mxGeometry relative="1" as="geometry" />
        </mxCell>
        <mxCell id="0JrusJnMJfVBX46V95SI-4" value="Benutzer eingeloggt?" style="edgeLabel;html=1;align=center;verticalAlign=middle;resizable=0;points=[];" parent="0JrusJnMJfVBX46V95SI-3" vertex="1" connectable="0">
          <mxGeometry x="0.1305" y="-1" relative="1" as="geometry">
            <mxPoint x="-102" y="-11" as="offset" />
          </mxGeometry>
        </mxCell>
        <mxCell id="r15vyIwHmRAf6tkdbMvE-20" value="" style="rhombus;whiteSpace=wrap;html=1;" parent="r15vyIwHmRAf6tkdbMvE-13" vertex="1">
          <mxGeometry x="190" y="50" width="40" height="40" as="geometry" />
        </mxCell>
        <mxCell id="r15vyIwHmRAf6tkdbMvE-31" value="Anmeldeseite anzeigen" style="rounded=1;whiteSpace=wrap;html=1;" parent="r15vyIwHmRAf6tkdbMvE-13" vertex="1">
          <mxGeometry x="30" y="130" width="110" height="40" as="geometry" />
        </mxCell>
        <mxCell id="0JrusJnMJfVBX46V95SI-2" value="Angemeldete Kurse anzeigen" style="rounded=1;whiteSpace=wrap;html=1;" parent="r15vyIwHmRAf6tkdbMvE-13" vertex="1">
          <mxGeometry x="310" y="430" width="180" height="40" as="geometry" />
        </mxCell>
        <mxCell id="0JrusJnMJfVBX46V95SI-41" style="edgeStyle=orthogonalEdgeStyle;rounded=0;orthogonalLoop=1;jettySize=auto;html=1;endArrow=open;endFill=0;" parent="r15vyIwHmRAf6tkdbMvE-13" source="0JrusJnMJfVBX46V95SI-38" target="0JrusJnMJfVBX46V95SI-40" edge="1">
          <mxGeometry relative="1" as="geometry">
            <mxPoint x="99.74" y="370" as="sourcePoint" />
            <mxPoint x="99.74" y="230" as="targetPoint" />
          </mxGeometry>
        </mxCell>
        <mxCell id="0JrusJnMJfVBX46V95SI-43" value="Benutzername nicht gÃ¼ltig?" style="edgeLabel;html=1;align=center;verticalAlign=middle;resizable=0;points=[];" parent="0JrusJnMJfVBX46V95SI-41" vertex="1" connectable="0">
          <mxGeometry x="-0.6075" y="1" relative="1" as="geometry">
            <mxPoint x="1" y="-12" as="offset" />
          </mxGeometry>
        </mxCell>
        <mxCell id="0JrusJnMJfVBX46V95SI-44" style="edgeStyle=orthogonalEdgeStyle;rounded=0;orthogonalLoop=1;jettySize=auto;html=1;endArrow=open;endFill=0;" parent="r15vyIwHmRAf6tkdbMvE-13" source="0JrusJnMJfVBX46V95SI-38" target="0JrusJnMJfVBX46V95SI-46" edge="1">
          <mxGeometry relative="1" as="geometry" />
        </mxCell>
        <mxCell id="0JrusJnMJfVBX46V95SI-45" value="Benutzername gÃ¼ltig?" style="edgeLabel;html=1;align=center;verticalAlign=middle;resizable=0;points=[];" parent="0JrusJnMJfVBX46V95SI-44" vertex="1" connectable="0">
          <mxGeometry x="-0.8153" y="-1" relative="1" as="geometry">
            <mxPoint x="52" y="-1" as="offset" />
          </mxGeometry>
        </mxCell>
        <mxCell id="0JrusJnMJfVBX46V95SI-38" value="" style="rhombus;whiteSpace=wrap;html=1;" parent="r15vyIwHmRAf6tkdbMvE-13" vertex="1">
          <mxGeometry x="190" y="220" width="40" height="40" as="geometry" />
        </mxCell>
        <mxCell id="0JrusJnMJfVBX46V95SI-42" style="edgeStyle=orthogonalEdgeStyle;rounded=0;orthogonalLoop=1;jettySize=auto;html=1;endArrow=open;endFill=0;" parent="r15vyIwHmRAf6tkdbMvE-13" source="0JrusJnMJfVBX46V95SI-40" target="r15vyIwHmRAf6tkdbMvE-31" edge="1">
          <mxGeometry relative="1" as="geometry" />
        </mxCell>
        <mxCell id="0JrusJnMJfVBX46V95SI-40" value="" style="rhombus;whiteSpace=wrap;html=1;" parent="r15vyIwHmRAf6tkdbMvE-13" vertex="1">
          <mxGeometry x="190" y="130" width="40" height="40" as="geometry" />
        </mxCell>
        <mxCell id="lxgantifRZ7oLD4zVD7n-153" style="edgeStyle=orthogonalEdgeStyle;shape=connector;rounded=0;orthogonalLoop=1;jettySize=auto;html=1;labelBackgroundColor=default;strokeColor=default;align=center;verticalAlign=middle;fontFamily=Helvetica;fontSize=11;fontColor=default;endArrow=open;endFill=0;" edge="1" parent="r15vyIwHmRAf6tkdbMvE-13" source="0JrusJnMJfVBX46V95SI-46" target="lxgantifRZ7oLD4zVD7n-150">
          <mxGeometry relative="1" as="geometry" />
        </mxCell>
        <mxCell id="0JrusJnMJfVBX46V95SI-46" value="" style="rhombus;whiteSpace=wrap;html=1;" parent="r15vyIwHmRAf6tkdbMvE-13" vertex="1">
          <mxGeometry x="380" y="220" width="40" height="40" as="geometry" />
        </mxCell>
        <mxCell id="lxgantifRZ7oLD4zVD7n-123" value="Request der Module an Backend stellen" style="rounded=1;whiteSpace=wrap;html=1;" vertex="1" parent="r15vyIwHmRAf6tkdbMvE-13">
          <mxGeometry x="30" y="470" width="110" height="40" as="geometry" />
        </mxCell>
        <mxCell id="lxgantifRZ7oLD4zVD7n-131" style="edgeStyle=orthogonalEdgeStyle;shape=connector;rounded=0;orthogonalLoop=1;jettySize=auto;html=1;labelBackgroundColor=default;strokeColor=default;align=center;verticalAlign=middle;fontFamily=Helvetica;fontSize=11;fontColor=default;endArrow=open;endFill=0;" edge="1" parent="r15vyIwHmRAf6tkdbMvE-13" source="lxgantifRZ7oLD4zVD7n-126" target="lxgantifRZ7oLD4zVD7n-157">
          <mxGeometry relative="1" as="geometry" />
        </mxCell>
        <mxCell id="lxgantifRZ7oLD4zVD7n-126" value="" style="rhombus;whiteSpace=wrap;html=1;" vertex="1" parent="r15vyIwHmRAf6tkdbMvE-13">
          <mxGeometry x="65" y="540" width="40" height="40" as="geometry" />
        </mxCell>
        <mxCell id="lxgantifRZ7oLD4zVD7n-130" style="edgeStyle=orthogonalEdgeStyle;shape=connector;rounded=0;orthogonalLoop=1;jettySize=auto;html=1;labelBackgroundColor=default;strokeColor=default;align=center;verticalAlign=middle;fontFamily=Helvetica;fontSize=11;fontColor=default;endArrow=open;endFill=0;" edge="1" parent="r15vyIwHmRAf6tkdbMvE-13" source="lxgantifRZ7oLD4zVD7n-123" target="lxgantifRZ7oLD4zVD7n-126">
          <mxGeometry relative="1" as="geometry" />
        </mxCell>
        <mxCell id="lxgantifRZ7oLD4zVD7n-140" style="edgeStyle=orthogonalEdgeStyle;shape=connector;rounded=0;orthogonalLoop=1;jettySize=auto;html=1;labelBackgroundColor=default;strokeColor=default;align=center;verticalAlign=middle;fontFamily=Helvetica;fontSize=11;fontColor=default;endArrow=open;endFill=0;" edge="1" parent="r15vyIwHmRAf6tkdbMvE-13" source="lxgantifRZ7oLD4zVD7n-132" target="lxgantifRZ7oLD4zVD7n-126">
          <mxGeometry relative="1" as="geometry">
            <Array as="points">
              <mxPoint x="190" y="560" />
              <mxPoint x="190" y="560" />
            </Array>
          </mxGeometry>
        </mxCell>
        <mxCell id="lxgantifRZ7oLD4zVD7n-154" style="edgeStyle=orthogonalEdgeStyle;shape=connector;rounded=0;orthogonalLoop=1;jettySize=auto;html=1;labelBackgroundColor=default;strokeColor=default;align=center;verticalAlign=middle;fontFamily=Helvetica;fontSize=11;fontColor=default;endArrow=open;endFill=0;" edge="1" parent="r15vyIwHmRAf6tkdbMvE-13" source="lxgantifRZ7oLD4zVD7n-150" target="lxgantifRZ7oLD4zVD7n-152">
          <mxGeometry relative="1" as="geometry" />
        </mxCell>
        <mxCell id="lxgantifRZ7oLD4zVD7n-150" value="Request von allen Kursen fÃ¼r den Benutzer an Backend stellen" style="rounded=1;whiteSpace=wrap;html=1;" vertex="1" parent="r15vyIwHmRAf6tkdbMvE-13">
          <mxGeometry x="310" y="290" width="180" height="40" as="geometry" />
        </mxCell>
        <mxCell id="lxgantifRZ7oLD4zVD7n-155" style="edgeStyle=orthogonalEdgeStyle;shape=connector;rounded=0;orthogonalLoop=1;jettySize=auto;html=1;labelBackgroundColor=default;strokeColor=default;align=center;verticalAlign=middle;fontFamily=Helvetica;fontSize=11;fontColor=default;endArrow=open;endFill=0;" edge="1" parent="r15vyIwHmRAf6tkdbMvE-13" source="lxgantifRZ7oLD4zVD7n-152" target="0JrusJnMJfVBX46V95SI-2">
          <mxGeometry relative="1" as="geometry" />
        </mxCell>
        <mxCell id="lxgantifRZ7oLD4zVD7n-152" value="Backend liefert alle Kurse fÃ¼r den Benutzer" style="rounded=1;whiteSpace=wrap;html=1;" vertex="1" parent="r15vyIwHmRAf6tkdbMvE-13">
          <mxGeometry x="310" y="360" width="180" height="40" as="geometry" />
        </mxCell>
        <mxCell id="lxgantifRZ7oLD4zVD7n-163" style="edgeStyle=orthogonalEdgeStyle;shape=connector;rounded=0;orthogonalLoop=1;jettySize=auto;html=1;labelBackgroundColor=default;strokeColor=default;align=center;verticalAlign=middle;fontFamily=Helvetica;fontSize=11;fontColor=default;endArrow=open;endFill=0;" edge="1" parent="r15vyIwHmRAf6tkdbMvE-13" source="lxgantifRZ7oLD4zVD7n-157" target="lxgantifRZ7oLD4zVD7n-119">
          <mxGeometry relative="1" as="geometry">
            <mxPoint x="85" y="680" as="targetPoint" />
          </mxGeometry>
        </mxCell>
        <mxCell id="lxgantifRZ7oLD4zVD7n-157" value="Backend liefert die Module" style="rounded=1;whiteSpace=wrap;html=1;" vertex="1" parent="r15vyIwHmRAf6tkdbMvE-13">
          <mxGeometry x="30" y="610" width="110" height="40" as="geometry" />
        </mxCell>
        <mxCell id="lxgantifRZ7oLD4zVD7n-119" value="Moduleseite anzeigen" style="rounded=1;whiteSpace=wrap;html=1;" vertex="1" parent="r15vyIwHmRAf6tkdbMvE-13">
          <mxGeometry x="30" y="670" width="110" height="40" as="geometry" />
        </mxCell>
        <mxCell id="lxgantifRZ7oLD4zVD7n-132" value="Request der gesuchten Module an Backend stellen" style="rounded=1;whiteSpace=wrap;html=1;" vertex="1" parent="r15vyIwHmRAf6tkdbMvE-13">
          <mxGeometry x="272.5" y="540" width="110" height="40" as="geometry" />
        </mxCell>
        <mxCell id="lxgantifRZ7oLD4zVD7n-142" style="edgeStyle=orthogonalEdgeStyle;shape=connector;rounded=0;orthogonalLoop=1;jettySize=auto;html=1;labelBackgroundColor=default;strokeColor=default;align=center;verticalAlign=middle;fontFamily=Helvetica;fontSize=11;fontColor=default;endArrow=open;endFill=0;" edge="1" parent="r15vyIwHmRAf6tkdbMvE-13" source="lxgantifRZ7oLD4zVD7n-141" target="lxgantifRZ7oLD4zVD7n-159">
          <mxGeometry relative="1" as="geometry" />
        </mxCell>
        <mxCell id="lxgantifRZ7oLD4zVD7n-141" value="Request der Details des Modules an Backend stellen" style="rounded=1;whiteSpace=wrap;html=1;" vertex="1" parent="r15vyIwHmRAf6tkdbMvE-13">
          <mxGeometry x="18.13" y="795" width="141.87" height="50" as="geometry" />
        </mxCell>
        <mxCell id="lxgantifRZ7oLD4zVD7n-160" style="edgeStyle=orthogonalEdgeStyle;shape=connector;rounded=0;orthogonalLoop=1;jettySize=auto;html=1;labelBackgroundColor=default;strokeColor=default;align=center;verticalAlign=middle;fontFamily=Helvetica;fontSize=11;fontColor=default;endArrow=open;endFill=0;" edge="1" parent="r15vyIwHmRAf6tkdbMvE-13" source="lxgantifRZ7oLD4zVD7n-159" target="lxgantifRZ7oLD4zVD7n-183">
          <mxGeometry relative="1" as="geometry" />
        </mxCell>
        <mxCell id="lxgantifRZ7oLD4zVD7n-159" value="Backend liefert die Details fÃ¼r das Modul" style="rounded=1;whiteSpace=wrap;html=1;" vertex="1" parent="r15vyIwHmRAf6tkdbMvE-13">
          <mxGeometry x="17.19" y="870" width="143.75" height="40" as="geometry" />
        </mxCell>
        <mxCell id="lxgantifRZ7oLD4zVD7n-170" style="edgeStyle=orthogonalEdgeStyle;shape=connector;rounded=0;orthogonalLoop=1;jettySize=auto;html=1;labelBackgroundColor=default;strokeColor=default;align=center;verticalAlign=middle;fontFamily=Helvetica;fontSize=11;fontColor=default;endArrow=open;endFill=0;" edge="1" parent="r15vyIwHmRAf6tkdbMvE-13" source="lxgantifRZ7oLD4zVD7n-169" target="lxgantifRZ7oLD4zVD7n-132">
          <mxGeometry relative="1" as="geometry" />
        </mxCell>
        <mxCell id="lxgantifRZ7oLD4zVD7n-169" value="" style="rhombus;whiteSpace=wrap;html=1;" vertex="1" parent="r15vyIwHmRAf6tkdbMvE-13">
          <mxGeometry x="307.5" y="730" width="40" height="40" as="geometry" />
        </mxCell>
        <mxCell id="lxgantifRZ7oLD4zVD7n-122" value="Moduldetailseite anzeigen" style="rounded=1;whiteSpace=wrap;html=1;" vertex="1" parent="r15vyIwHmRAf6tkdbMvE-13">
          <mxGeometry x="34.07" y="1000" width="110" height="40" as="geometry" />
        </mxCell>
        <mxCell id="lxgantifRZ7oLD4zVD7n-182" style="edgeStyle=orthogonalEdgeStyle;shape=connector;rounded=0;orthogonalLoop=1;jettySize=auto;html=1;labelBackgroundColor=default;strokeColor=default;align=center;verticalAlign=middle;fontFamily=Helvetica;fontSize=11;fontColor=default;endArrow=open;endFill=0;" edge="1" parent="r15vyIwHmRAf6tkdbMvE-13" source="lxgantifRZ7oLD4zVD7n-178" target="lxgantifRZ7oLD4zVD7n-181">
          <mxGeometry relative="1" as="geometry">
            <Array as="points">
              <mxPoint x="245" y="1090" />
            </Array>
          </mxGeometry>
        </mxCell>
        <mxCell id="lxgantifRZ7oLD4zVD7n-178" value="Request der Anmeldung des Modules fÃ¼r den Benutzer an Backend stellen" style="rounded=1;whiteSpace=wrap;html=1;" vertex="1" parent="r15vyIwHmRAf6tkdbMvE-13">
          <mxGeometry x="30" y="1050" width="112.5" height="80" as="geometry" />
        </mxCell>
        <mxCell id="lxgantifRZ7oLD4zVD7n-185" style="edgeStyle=orthogonalEdgeStyle;shape=connector;rounded=0;orthogonalLoop=1;jettySize=auto;html=1;labelBackgroundColor=default;strokeColor=default;align=center;verticalAlign=middle;fontFamily=Helvetica;fontSize=11;fontColor=default;endArrow=open;endFill=0;" edge="1" parent="r15vyIwHmRAf6tkdbMvE-13" source="lxgantifRZ7oLD4zVD7n-181" target="lxgantifRZ7oLD4zVD7n-183">
          <mxGeometry relative="1" as="geometry">
            <Array as="points">
              <mxPoint x="240" y="960" />
            </Array>
          </mxGeometry>
        </mxCell>
        <mxCell id="lxgantifRZ7oLD4zVD7n-181" value="Backend erzeugt den Kurs" style="rounded=1;whiteSpace=wrap;html=1;" vertex="1" parent="r15vyIwHmRAf6tkdbMvE-13">
          <mxGeometry x="190" y="1000" width="110" height="40" as="geometry" />
        </mxCell>
        <mxCell id="lxgantifRZ7oLD4zVD7n-184" style="edgeStyle=orthogonalEdgeStyle;shape=connector;rounded=0;orthogonalLoop=1;jettySize=auto;html=1;labelBackgroundColor=default;strokeColor=default;align=center;verticalAlign=middle;fontFamily=Helvetica;fontSize=11;fontColor=default;endArrow=open;endFill=0;" edge="1" parent="r15vyIwHmRAf6tkdbMvE-13" source="lxgantifRZ7oLD4zVD7n-183" target="lxgantifRZ7oLD4zVD7n-122">
          <mxGeometry relative="1" as="geometry" />
        </mxCell>
        <mxCell id="lxgantifRZ7oLD4zVD7n-183" value="" style="rhombus;whiteSpace=wrap;html=1;" vertex="1" parent="r15vyIwHmRAf6tkdbMvE-13">
          <mxGeometry x="69.07" y="940" width="40" height="40" as="geometry" />
        </mxCell>
        <mxCell id="lxgantifRZ7oLD4zVD7n-190" style="edgeStyle=orthogonalEdgeStyle;shape=connector;rounded=0;orthogonalLoop=1;jettySize=auto;html=1;labelBackgroundColor=default;strokeColor=default;align=center;verticalAlign=middle;fontFamily=Helvetica;fontSize=11;fontColor=default;endArrow=open;endFill=0;" edge="1" parent="r15vyIwHmRAf6tkdbMvE-13" source="lxgantifRZ7oLD4zVD7n-113" target="lxgantifRZ7oLD4zVD7n-188">
          <mxGeometry relative="1" as="geometry" />
        </mxCell>
        <mxCell id="lxgantifRZ7oLD4zVD7n-113" value="" style="rhombus;whiteSpace=wrap;html=1;" vertex="1" parent="r15vyIwHmRAf6tkdbMvE-13">
          <mxGeometry x="682.5" y="220" width="40" height="40" as="geometry" />
        </mxCell>
        <mxCell id="lxgantifRZ7oLD4zVD7n-118" style="edgeStyle=orthogonalEdgeStyle;shape=connector;rounded=0;orthogonalLoop=1;jettySize=auto;html=1;labelBackgroundColor=default;strokeColor=default;align=center;verticalAlign=middle;fontFamily=Helvetica;fontSize=11;fontColor=default;endArrow=open;endFill=0;" edge="1" parent="r15vyIwHmRAf6tkdbMvE-13" source="lxgantifRZ7oLD4zVD7n-114" target="lxgantifRZ7oLD4zVD7n-113">
          <mxGeometry relative="1" as="geometry" />
        </mxCell>
        <mxCell id="lxgantifRZ7oLD4zVD7n-114" value="" style="rhombus;whiteSpace=wrap;html=1;" vertex="1" parent="r15vyIwHmRAf6tkdbMvE-13">
          <mxGeometry x="742.5" y="220" width="40" height="40" as="geometry" />
        </mxCell>
        <mxCell id="lxgantifRZ7oLD4zVD7n-116" style="edgeStyle=orthogonalEdgeStyle;shape=connector;rounded=0;orthogonalLoop=1;jettySize=auto;html=1;labelBackgroundColor=default;strokeColor=default;align=center;verticalAlign=middle;fontFamily=Helvetica;fontSize=11;fontColor=default;endArrow=open;endFill=0;" edge="1" parent="r15vyIwHmRAf6tkdbMvE-13" target="lxgantifRZ7oLD4zVD7n-114">
          <mxGeometry relative="1" as="geometry">
            <mxPoint x="677.5" y="1850" as="sourcePoint" />
          </mxGeometry>
        </mxCell>
        <mxCell id="lxgantifRZ7oLD4zVD7n-189" style="edgeStyle=orthogonalEdgeStyle;shape=connector;rounded=0;orthogonalLoop=1;jettySize=auto;html=1;labelBackgroundColor=default;strokeColor=default;align=center;verticalAlign=middle;fontFamily=Helvetica;fontSize=11;fontColor=default;endArrow=open;endFill=0;" edge="1" parent="r15vyIwHmRAf6tkdbMvE-13" source="lxgantifRZ7oLD4zVD7n-188" target="0JrusJnMJfVBX46V95SI-46">
          <mxGeometry relative="1" as="geometry">
            <mxPoint x="550" y="240" as="targetPoint" />
          </mxGeometry>
        </mxCell>
        <mxCell id="lxgantifRZ7oLD4zVD7n-188" value="" style="rhombus;whiteSpace=wrap;html=1;" vertex="1" parent="r15vyIwHmRAf6tkdbMvE-13">
          <mxGeometry x="500" y="220" width="40" height="40" as="geometry" />
        </mxCell>
        <mxCell id="lxgantifRZ7oLD4zVD7n-10" style="edgeStyle=orthogonalEdgeStyle;rounded=0;orthogonalLoop=1;jettySize=auto;html=1;entryX=0;entryY=0.5;entryDx=0;entryDy=0;endArrow=open;endFill=0;" edge="1" parent="1" source="0JrusJnMJfVBX46V95SI-96" target="lxgantifRZ7oLD4zVD7n-9">
          <mxGeometry relative="1" as="geometry" />
        </mxCell>
        <mxCell id="lxgantifRZ7oLD4zVD7n-12" style="edgeStyle=orthogonalEdgeStyle;rounded=0;orthogonalLoop=1;jettySize=auto;html=1;endArrow=open;endFill=0;" edge="1" parent="1" source="lxgantifRZ7oLD4zVD7n-9" target="lxgantifRZ7oLD4zVD7n-11">
          <mxGeometry relative="1" as="geometry">
            <Array as="points">
              <mxPoint x="920" y="1800" />
              <mxPoint x="610" y="1800" />
            </Array>
          </mxGeometry>
        </mxCell>
        <mxCell id="lxgantifRZ7oLD4zVD7n-14" style="edgeStyle=orthogonalEdgeStyle;rounded=0;orthogonalLoop=1;jettySize=auto;html=1;endArrow=open;endFill=0;" edge="1" parent="1" source="lxgantifRZ7oLD4zVD7n-11" target="lxgantifRZ7oLD4zVD7n-13">
          <mxGeometry relative="1" as="geometry" />
        </mxCell>
        <mxCell id="lxgantifRZ7oLD4zVD7n-74" style="edgeStyle=orthogonalEdgeStyle;shape=connector;rounded=0;orthogonalLoop=1;jettySize=auto;html=1;labelBackgroundColor=default;strokeColor=default;align=center;verticalAlign=middle;fontFamily=Helvetica;fontSize=11;fontColor=default;endArrow=open;endFill=0;" edge="1" parent="1" source="lxgantifRZ7oLD4zVD7n-66" target="lxgantifRZ7oLD4zVD7n-72">
          <mxGeometry relative="1" as="geometry" />
        </mxCell>
        <mxCell id="lxgantifRZ7oLD4zVD7n-76" style="edgeStyle=orthogonalEdgeStyle;shape=connector;rounded=0;orthogonalLoop=1;jettySize=auto;html=1;labelBackgroundColor=default;strokeColor=default;align=center;verticalAlign=middle;fontFamily=Helvetica;fontSize=11;fontColor=default;endArrow=open;endFill=0;" edge="1" parent="1" source="lxgantifRZ7oLD4zVD7n-73" target="lxgantifRZ7oLD4zVD7n-68">
          <mxGeometry relative="1" as="geometry" />
        </mxCell>
        <mxCell id="lxgantifRZ7oLD4zVD7n-112" style="edgeStyle=orthogonalEdgeStyle;shape=connector;rounded=0;orthogonalLoop=1;jettySize=auto;html=1;labelBackgroundColor=default;strokeColor=default;align=center;verticalAlign=middle;fontFamily=Helvetica;fontSize=11;fontColor=default;endArrow=open;endFill=0;" edge="1" parent="1" source="0JrusJnMJfVBX46V95SI-97" target="lxgantifRZ7oLD4zVD7n-111">
          <mxGeometry relative="1" as="geometry" />
        </mxCell>
        <mxCell id="r15vyIwHmRAf6tkdbMvE-86" value="" style="ellipse;html=1;shape=endState;fillColor=#000000;strokeColor=#000000;fontFamily=Helvetica;fontSize=11;fontColor=default;" parent="1" vertex="1">
          <mxGeometry x="380" y="2270" width="30" height="30" as="geometry" />
        </mxCell>
        <mxCell id="0JrusJnMJfVBX46V95SI-90" value="App schlieÃen" style="rounded=1;whiteSpace=wrap;html=1;" parent="1" vertex="1">
          <mxGeometry x="340" y="2190" width="110" height="40" as="geometry" />
        </mxCell>
        <mxCell id="r15vyIwHmRAf6tkdbMvE-87" style="edgeStyle=orthogonalEdgeStyle;shape=connector;rounded=0;orthogonalLoop=1;jettySize=auto;html=1;labelBackgroundColor=default;strokeColor=default;align=center;verticalAlign=middle;fontFamily=Helvetica;fontSize=11;fontColor=default;endArrow=open;endFill=0;" parent="1" source="0JrusJnMJfVBX46V95SI-90" target="r15vyIwHmRAf6tkdbMvE-86" edge="1">
          <mxGeometry relative="1" as="geometry">
            <mxPoint x="365" y="2040" as="sourcePoint" />
          </mxGeometry>
        </mxCell>
        <mxCell id="0JrusJnMJfVBX46V95SI-91" value="" style="rhombus;whiteSpace=wrap;html=1;" parent="1" vertex="1">
          <mxGeometry x="375" y="1950" width="40" height="40" as="geometry" />
        </mxCell>
        <mxCell id="0JrusJnMJfVBX46V95SI-96" value="Kurs bearbeiten klicken" style="rounded=1;whiteSpace=wrap;html=1;" parent="1" vertex="1">
          <mxGeometry x="555" y="1740" width="110" height="40" as="geometry" />
        </mxCell>
        <mxCell id="0JrusJnMJfVBX46V95SI-97" value="Kurs lÃ¶schen klicken" style="rounded=1;whiteSpace=wrap;html=1;" parent="1" vertex="1">
          <mxGeometry x="565" y="1910" width="110" height="40" as="geometry" />
        </mxCell>
        <mxCell id="0JrusJnMJfVBX46V95SI-101" style="edgeStyle=orthogonalEdgeStyle;rounded=0;orthogonalLoop=1;jettySize=auto;html=1;endArrow=open;endFill=0;" parent="1" source="0JrusJnMJfVBX46V95SI-100" target="0JrusJnMJfVBX46V95SI-97" edge="1">
          <mxGeometry relative="1" as="geometry" />
        </mxCell>
        <mxCell id="0JrusJnMJfVBX46V95SI-100" value="" style="rhombus;whiteSpace=wrap;html=1;" parent="1" vertex="1">
          <mxGeometry x="465" y="1910" width="40" height="40" as="geometry" />
        </mxCell>
        <mxCell id="0JrusJnMJfVBX46V95SI-107" style="edgeStyle=orthogonalEdgeStyle;rounded=0;orthogonalLoop=1;jettySize=auto;html=1;endArrow=open;endFill=0;" parent="1" source="0JrusJnMJfVBX46V95SI-102" target="0JrusJnMJfVBX46V95SI-96" edge="1">
          <mxGeometry relative="1" as="geometry" />
        </mxCell>
        <mxCell id="0JrusJnMJfVBX46V95SI-109" style="edgeStyle=orthogonalEdgeStyle;shape=connector;rounded=0;orthogonalLoop=1;jettySize=auto;html=1;labelBackgroundColor=default;strokeColor=default;align=center;verticalAlign=middle;fontFamily=Helvetica;fontSize=11;fontColor=default;endArrow=open;endFill=0;" parent="1" source="0JrusJnMJfVBX46V95SI-102" target="0JrusJnMJfVBX46V95SI-100" edge="1">
          <mxGeometry relative="1" as="geometry" />
        </mxCell>
        <mxCell id="0JrusJnMJfVBX46V95SI-102" value="" style="rhombus;whiteSpace=wrap;html=1;" parent="1" vertex="1">
          <mxGeometry x="465" y="1740" width="40" height="40" as="geometry" />
        </mxCell>
        <mxCell id="0JrusJnMJfVBX46V95SI-108" style="edgeStyle=orthogonalEdgeStyle;shape=connector;rounded=0;orthogonalLoop=1;jettySize=auto;html=1;labelBackgroundColor=default;strokeColor=default;align=center;verticalAlign=middle;fontFamily=Helvetica;fontSize=11;fontColor=default;endArrow=open;endFill=0;" parent="1" source="0JrusJnMJfVBX46V95SI-103" target="0JrusJnMJfVBX46V95SI-102" edge="1">
          <mxGeometry relative="1" as="geometry" />
        </mxCell>
        <mxCell id="lxgantifRZ7oLD4zVD7n-21" value="Kurse &amp;gt; 0?" style="edgeLabel;html=1;align=center;verticalAlign=middle;resizable=0;points=[];fontSize=11;fontFamily=Helvetica;fontColor=default;" vertex="1" connectable="0" parent="0JrusJnMJfVBX46V95SI-108">
          <mxGeometry x="0.0105" relative="1" as="geometry">
            <mxPoint as="offset" />
          </mxGeometry>
        </mxCell>
        <mxCell id="lxgantifRZ7oLD4zVD7n-11" value="Kursinformationen anpassen" style="rounded=1;whiteSpace=wrap;html=1;" vertex="1" parent="1">
          <mxGeometry x="555" y="1820" width="110" height="40" as="geometry" />
        </mxCell>
        <mxCell id="lxgantifRZ7oLD4zVD7n-66" value="Abmelden klicken" style="rounded=1;whiteSpace=wrap;html=1;" vertex="1" parent="1">
          <mxGeometry x="495" y="2030" width="110" height="40" as="geometry" />
        </mxCell>
        <mxCell id="lxgantifRZ7oLD4zVD7n-70" style="edgeStyle=orthogonalEdgeStyle;shape=connector;rounded=0;orthogonalLoop=1;jettySize=auto;html=1;exitX=1;exitY=0.5;exitDx=0;exitDy=0;labelBackgroundColor=default;strokeColor=default;align=center;verticalAlign=middle;fontFamily=Helvetica;fontSize=11;fontColor=default;endArrow=open;endFill=0;" edge="1" parent="1" source="0JrusJnMJfVBX46V95SI-91" target="lxgantifRZ7oLD4zVD7n-66">
          <mxGeometry relative="1" as="geometry" />
        </mxCell>
        <mxCell id="lxgantifRZ7oLD4zVD7n-71" value="abmelden?" style="edgeLabel;html=1;align=center;verticalAlign=middle;resizable=0;points=[];fontSize=11;fontFamily=Helvetica;fontColor=default;" vertex="1" connectable="0" parent="lxgantifRZ7oLD4zVD7n-70">
          <mxGeometry x="-0.4916" relative="1" as="geometry">
            <mxPoint as="offset" />
          </mxGeometry>
        </mxCell>
        <mxCell id="lxgantifRZ7oLD4zVD7n-69" style="edgeStyle=orthogonalEdgeStyle;shape=connector;rounded=0;orthogonalLoop=1;jettySize=auto;html=1;labelBackgroundColor=default;strokeColor=default;align=center;verticalAlign=middle;fontFamily=Helvetica;fontSize=11;fontColor=default;endArrow=open;endFill=0;" edge="1" parent="1" source="lxgantifRZ7oLD4zVD7n-68" target="0JrusJnMJfVBX46V95SI-90">
          <mxGeometry relative="1" as="geometry" />
        </mxCell>
        <mxCell id="lxgantifRZ7oLD4zVD7n-68" value="" style="rhombus;whiteSpace=wrap;html=1;" vertex="1" parent="1">
          <mxGeometry x="375" y="2120" width="40" height="40" as="geometry" />
        </mxCell>
        <mxCell id="0JrusJnMJfVBX46V95SI-92" style="edgeStyle=orthogonalEdgeStyle;rounded=0;orthogonalLoop=1;jettySize=auto;html=1;endArrow=open;endFill=0;" parent="1" source="0JrusJnMJfVBX46V95SI-91" target="lxgantifRZ7oLD4zVD7n-68" edge="1">
          <mxGeometry relative="1" as="geometry" />
        </mxCell>
        <mxCell id="lxgantifRZ7oLD4zVD7n-23" value="nicht abmelden?" style="edgeLabel;html=1;align=center;verticalAlign=middle;resizable=0;points=[];fontSize=11;fontFamily=Helvetica;fontColor=default;" vertex="1" connectable="0" parent="0JrusJnMJfVBX46V95SI-92">
          <mxGeometry x="-0.1238" y="2" relative="1" as="geometry">
            <mxPoint as="offset" />
          </mxGeometry>
        </mxCell>
        <mxCell id="lxgantifRZ7oLD4zVD7n-9" value="Update dialog anzeigen" style="rounded=1;whiteSpace=wrap;html=1;" vertex="1" parent="1">
          <mxGeometry x="1105" y="1740" width="110" height="40" as="geometry" />
        </mxCell>
        <mxCell id="lxgantifRZ7oLD4zVD7n-146" style="edgeStyle=orthogonalEdgeStyle;shape=connector;rounded=0;orthogonalLoop=1;jettySize=auto;html=1;labelBackgroundColor=default;strokeColor=default;align=center;verticalAlign=middle;fontFamily=Helvetica;fontSize=11;fontColor=default;endArrow=open;endFill=0;" edge="1" parent="1" source="lxgantifRZ7oLD4zVD7n-13" target="lxgantifRZ7oLD4zVD7n-144">
          <mxGeometry relative="1" as="geometry" />
        </mxCell>
        <mxCell id="lxgantifRZ7oLD4zVD7n-13" value="Update-Request fÃ¼r den Kurs an Backend stellen" style="rounded=1;whiteSpace=wrap;html=1;" vertex="1" parent="1">
          <mxGeometry x="1032.5" y="1820" width="145" height="40" as="geometry" />
        </mxCell>
        <mxCell id="lxgantifRZ7oLD4zVD7n-75" style="edgeStyle=orthogonalEdgeStyle;shape=connector;rounded=0;orthogonalLoop=1;jettySize=auto;html=1;labelBackgroundColor=default;strokeColor=default;align=center;verticalAlign=middle;fontFamily=Helvetica;fontSize=11;fontColor=default;endArrow=open;endFill=0;" edge="1" parent="1" source="lxgantifRZ7oLD4zVD7n-72" target="lxgantifRZ7oLD4zVD7n-73">
          <mxGeometry relative="1" as="geometry" />
        </mxCell>
        <mxCell id="lxgantifRZ7oLD4zVD7n-72" value="Benutzer vergessen" style="rounded=1;whiteSpace=wrap;html=1;" vertex="1" parent="1">
          <mxGeometry x="1055" y="2030" width="110" height="40" as="geometry" />
        </mxCell>
        <mxCell id="lxgantifRZ7oLD4zVD7n-73" value="Anmeldeseite anzeigen" style="rounded=1;whiteSpace=wrap;html=1;" vertex="1" parent="1">
          <mxGeometry x="1055" y="2120" width="110" height="40" as="geometry" />
        </mxCell>
        <mxCell id="lxgantifRZ7oLD4zVD7n-149" style="edgeStyle=orthogonalEdgeStyle;shape=connector;rounded=0;orthogonalLoop=1;jettySize=auto;html=1;labelBackgroundColor=default;strokeColor=default;align=center;verticalAlign=middle;fontFamily=Helvetica;fontSize=11;fontColor=default;endArrow=open;endFill=0;" edge="1" parent="1" source="lxgantifRZ7oLD4zVD7n-111" target="lxgantifRZ7oLD4zVD7n-148">
          <mxGeometry relative="1" as="geometry" />
        </mxCell>
        <mxCell id="lxgantifRZ7oLD4zVD7n-111" value="Delete-RequestfÃ¼r den Kurs&lt;br&gt;an Backend stellen" style="rounded=1;whiteSpace=wrap;html=1;" vertex="1" parent="1">
          <mxGeometry x="1050" y="1900" width="110" height="40" as="geometry" />
        </mxCell>
        <mxCell id="lxgantifRZ7oLD4zVD7n-147" style="edgeStyle=orthogonalEdgeStyle;shape=connector;rounded=0;orthogonalLoop=1;jettySize=auto;html=1;labelBackgroundColor=default;strokeColor=default;align=center;verticalAlign=middle;fontFamily=Helvetica;fontSize=11;fontColor=default;endArrow=open;endFill=0;" edge="1" parent="1" source="lxgantifRZ7oLD4zVD7n-144" target="lxgantifRZ7oLD4zVD7n-145">
          <mxGeometry relative="1" as="geometry" />
        </mxCell>
        <mxCell id="lxgantifRZ7oLD4zVD7n-144" value="Backend aktualisiert den Kurs" style="rounded=1;whiteSpace=wrap;html=1;" vertex="1" parent="1">
          <mxGeometry x="1237.5" y="1820" width="110" height="40" as="geometry" />
        </mxCell>
        <mxCell id="lxgantifRZ7oLD4zVD7n-145" value="Backend erzeugt Tasks fÃ¼r den Kurs" style="rounded=1;whiteSpace=wrap;html=1;" vertex="1" parent="1">
          <mxGeometry x="1407.5" y="1820" width="110" height="40" as="geometry" />
        </mxCell>
        <mxCell id="lxgantifRZ7oLD4zVD7n-148" value="Backend lÃ¶scht den Kurs fÃ¼r den Benutzer" style="rounded=1;whiteSpace=wrap;html=1;" vertex="1" parent="1">
          <mxGeometry x="1407.5" y="1900" width="110" height="40" as="geometry" />
        </mxCell>
        <mxCell id="0JrusJnMJfVBX46V95SI-112" style="edgeStyle=orthogonalEdgeStyle;shape=connector;rounded=0;orthogonalLoop=1;jettySize=auto;html=1;labelBackgroundColor=default;strokeColor=default;align=center;verticalAlign=middle;fontFamily=Helvetica;fontSize=11;fontColor=default;endArrow=open;endFill=0;" parent="1" source="0JrusJnMJfVBX46V95SI-110" target="0JrusJnMJfVBX46V95SI-91" edge="1">
          <mxGeometry relative="1" as="geometry">
            <mxPoint x="260" y="1080" as="targetPoint" />
            <Array as="points">
              <mxPoint x="260" y="690" />
              <mxPoint x="260" y="1120" />
            </Array>
            <mxPoint x="240" y="809.9999999999998" as="sourcePoint" />
          </mxGeometry>
        </mxCell>
        <mxCell id="lxgantifRZ7oLD4zVD7n-6" value="fertig?" style="edgeLabel;html=1;align=center;verticalAlign=middle;resizable=0;points=[];" vertex="1" connectable="0" parent="0JrusJnMJfVBX46V95SI-112">
          <mxGeometry x="-0.8383" y="-2" relative="1" as="geometry">
            <mxPoint x="18" y="2" as="offset" />
          </mxGeometry>
        </mxCell>
        <mxCell id="lxgantifRZ7oLD4zVD7n-115" style="edgeStyle=orthogonalEdgeStyle;shape=connector;rounded=0;orthogonalLoop=1;jettySize=auto;html=1;labelBackgroundColor=default;strokeColor=default;align=center;verticalAlign=middle;fontFamily=Helvetica;fontSize=11;fontColor=default;endArrow=open;endFill=0;" edge="1" parent="1" source="lxgantifRZ7oLD4zVD7n-145" target="lxgantifRZ7oLD4zVD7n-113">
          <mxGeometry relative="1" as="geometry" />
        </mxCell>
      </root>
    </mxGraphModel>
  </diagram>
</mxfile>
